<svg width="24" height="24" viewBox="0 0 24 24" fill="none" xmlns="http://www.w3.org/2000/svg">
<path d="M8 12.5C8 12.5 11 4.99733 16 5C17.8565 5 19.637 5.7375 20.9497 7.05025C22.2625 8.36301 23 10.1435 23 12" stroke="#2F3238" stroke-width="1.6" stroke-linecap="round" stroke-linejoin="round"/>
<path d="M8 11.9995C8 11.9995 8.52436 13.3108 9.5 14.8369M23 12.4995C23 13.4362 22.8123 14.3535 22.4576 15.2012" stroke="#2F3238" stroke-width="1.6" stroke-linecap="round" stroke-linejoin="round"/>
<path d="M8 12.5C8 12.5 6.6 16 4.26667 16C3.40029 16 2.5694 15.6313 1.95678 14.9749C1.34417 14.3185 1 13.4283 1 12.5C1 11.5717 1.34417 10.6815 1.95678 10.0251C2.5694 9.36875 3.40029 9 4.26667 9C6.6 8.99867 8 12.5 8 12.5Z" stroke="#2F3238" stroke-width="1.6" stroke-linecap="round" stroke-linejoin="round"/>
<path d="M14 14.5312H18.252C18.252 14.5312 20.252 14.5312 20.252 16.5312V18.9513C20.252 18.9513 20.252 20.9512 18.252 20.9512H14C14 20.9512 12 20.9513 12 18.9513V16.5312C12 16.5312 12 14.5312 14 14.5312Z" stroke="#2F3238" stroke-width="1.6" stroke-linejoin="round"/>
<path d="M16.1289 12V14.533" stroke="#2F3238" stroke-width="1.6" stroke-linecap="round" stroke-linejoin="round"/>
<path d="M14.6172 17.375V18.103" stroke="#2F3238" stroke-width="1.6" stroke-linecap="round" stroke-linejoin="round"/>
<path d="M17.6367 17.375V18.103" stroke="#2F3238" stroke-width="1.6" stroke-linecap="round" stroke-linejoin="round"/>
</svg>
