<svg width="24" height="26" viewBox="0 0 24 26" fill="none" xmlns="http://www.w3.org/2000/svg">
<g id="Alarm Bell">
<path id="Vector" d="M10 22.75C10.127 23.1827 10.3908 23.5626 10.7518 23.8328C11.1127 24.1031 11.5516 24.2492 12.0025 24.2492C12.4534 24.2492 12.8923 24.1031 13.2532 23.8328C13.6142 23.5626 13.878 23.1827 14.005 22.75" stroke="#424750" stroke-width="1.6" stroke-linecap="round" stroke-linejoin="round"/>
<path id="Vector_2" d="M12 4V1.75" stroke="#424750" stroke-width="1.6" stroke-linecap="round" stroke-linejoin="round"/>
<path id="Vector_3" d="M12 4C13.9891 4 15.8968 4.79018 17.3033 6.1967C18.7098 7.60322 19.5 9.51088 19.5 11.5C19.5 18.546 21 19.75 21 19.75H3C3 19.75 4.5 17.834 4.5 11.5C4.5 9.51088 5.29018 7.60322 6.6967 6.1967C8.10322 4.79018 10.0109 4 12 4Z" stroke="#424750" stroke-width="1.6" stroke-linecap="round" stroke-linejoin="round"/>
</g>
</svg>
