<svg width="40" height="40" viewBox="0 0 40 40" fill="none" xmlns="http://www.w3.org/2000/svg">
<path d="M19.9994 31.6413C26.429 31.6413 31.6413 26.429 31.6413 19.9994C31.6413 13.5697 26.429 8.35742 19.9994 8.35742C13.5697 8.35742 8.35742 13.5697 8.35742 19.9994C8.35742 26.429 13.5697 31.6413 19.9994 31.6413Z" fill="#D11D15" stroke="#DE6966" stroke-width="1.6" stroke-miterlimit="10"/>
<path d="M20.0385 17.2997C20.899 17.2997 21.5966 16.6022 21.5966 15.7417C21.5966 14.8812 20.899 14.1836 20.0385 14.1836C19.178 14.1836 18.4805 14.8812 18.4805 15.7417C18.4805 16.6022 19.178 17.2997 20.0385 17.2997Z" stroke="white" stroke-width="1.2" stroke-miterlimit="10"/>
<path d="M20.0485 19.2441C20.542 19.3409 20.513 19.6022 20.7646 19.8635C21.2098 20.5312 21.5775 20.5119 22.4485 20.4345C23.1162 20.3861 23.6485 20.2022 24.3937 20.357C25.3227 20.599 25.7582 21.9925 24.8098 22.4087L24.7324 22.3893C24.3453 22.0409 24.3549 21.828 24.2388 21.6732C24.1711 21.528 24.0937 21.4603 24.084 21.4796C23.7066 21.4216 23.0388 21.5958 22.584 21.6441C21.984 21.6925 21.2098 21.7506 20.513 21.2087C20.1549 20.9183 20.0098 20.5796 19.9227 20.2699C19.8743 19.9119 19.6711 19.5538 20.0582 19.2538L20.0485 19.2441Z" fill="white"/>
<path d="M20.0492 19.2441C20.4169 19.5925 20.2137 19.8829 20.1653 20.2603C19.7879 21.857 17.7943 21.7699 16.633 21.5087C16.3717 21.4699 16.0911 21.4506 15.9943 21.4796C15.7137 21.6635 15.8298 21.9732 15.3459 22.3893L15.2685 22.4087C14.3201 21.9829 14.7653 20.599 15.6846 20.357C16.4298 20.2022 16.9621 20.3861 17.6298 20.4345C18.5008 20.5119 18.8685 20.5312 19.3137 19.8635C19.5653 19.6119 19.5556 19.3119 20.0492 19.2538V19.2441Z" fill="white"/>
<path d="M20.0284 25.67C20.3223 25.67 20.5606 25.4317 20.5606 25.1377C20.5606 24.8438 20.3223 24.6055 20.0284 24.6055C19.7344 24.6055 19.4961 24.8438 19.4961 25.1377C19.4961 25.4317 19.7344 25.67 20.0284 25.67Z" fill="white" stroke="white" stroke-width="1.2" stroke-miterlimit="10"/>
<path d="M24.878 25.67C25.1719 25.67 25.4102 25.4317 25.4102 25.1377C25.4102 24.8438 25.1719 24.6055 24.878 24.6055C24.584 24.6055 24.3457 24.8438 24.3457 25.1377C24.3457 25.4317 24.584 25.67 24.878 25.67Z" fill="white" stroke="white" stroke-width="1.2" stroke-miterlimit="10"/>
<path d="M15.1905 25.67C15.4844 25.67 15.7227 25.4317 15.7227 25.1377C15.7227 24.8438 15.4844 24.6055 15.1905 24.6055C14.8965 24.6055 14.6582 24.8438 14.6582 25.1377C14.6582 25.4317 14.8965 25.67 15.1905 25.67Z" fill="white" stroke="white" stroke-width="1.2" stroke-miterlimit="10"/>
</svg>
