<svg width="44" height="40" viewBox="0 0 44 40" fill="none" xmlns="http://www.w3.org/2000/svg">
<g clip-path="url(#clip0_2450_158503)">
<path d="M8.92578 13.4698C9.46367 11.933 11.5801 8.85938 15.7427 8.85938C20.9459 8.85938 23.9322 13.2817 23.0207 17.4217C22.2303 21.0113 19.9909 22.2627 19.0029 23.1189C17.5597 24.3697 17.5601 25.3902 17.0367 27.0411C16.7339 27.9961 15.6818 29.3578 14.2163 29.5256C13.1542 29.6471 11.875 29.1418 10.5065 27.4001" stroke="#424750" stroke-width="1.6" stroke-linecap="round" stroke-linejoin="round"/>
<path d="M31.1427 24.7754C31.1427 28.2919 28.292 31.1427 24.7754 31.1427" stroke="#424750" stroke-width="1.6" stroke-linecap="round" stroke-linejoin="round"/>
<path d="M28.1996 24.6562C28.1996 26.5473 26.6665 28.0804 24.7754 28.0804" stroke="#424750" stroke-width="1.6" stroke-linecap="round" stroke-linejoin="round"/>
<path d="M25.3501 23.7031C25.3501 24.5814 24.6381 25.2934 23.7598 25.2934" stroke="#424750" stroke-width="1.6" stroke-linecap="round" stroke-linejoin="round"/>
<path d="M12.0213 15.7077C12.333 14.9381 13.4446 13.4356 15.3982 13.5823C17.3517 13.7289 19.0291 15.7077 18.3375 17.5437C17.646 19.3797 16.732 18.8113 15.9006 20.0465C15.0692 21.2817 15.3797 23.76 13.5295 24.1301C12.3768 24.3606 11.7715 23.6992 11.7715 23.6992" stroke="#424750" stroke-width="1.6" stroke-linecap="round" stroke-linejoin="round"/>
</g>
<defs>
<clipPath id="clip0_2450_158503">
<rect width="24" height="24" fill="white" transform="translate(8 8)"/>
</clipPath>
</defs>
</svg>
