<svg width="24" height="24" viewBox="0 0 24 24" fill="none" xmlns="http://www.w3.org/2000/svg">
<g id="Component 6">
<path id="Union" fill-rule="evenodd" clip-rule="evenodd" d="M22.29 1.71H17.71V6.29H22.29V1.71ZM17.71 0H16V1.71V3.2H11.7661C11.3243 3.2 10.9661 3.55817 10.9661 4V12.145H8H7.90842C7.51684 10.3467 5.91569 9 4 9C1.79086 9 0 10.7909 0 13C0 15.2091 1.79086 17 4 17C5.91569 17 7.51684 15.6533 7.90842 13.855H8H10.9111V20C10.9111 20.4722 11.2939 20.855 11.7661 20.855H16H16.0916C16.4832 22.6533 18.0843 24 20 24C22.2091 24 24 22.2091 24 20C24 17.7909 22.2091 16 20 16C18.0843 16 16.4832 17.3467 16.0916 19.145H16H12.6211V13C12.6211 12.8935 12.6016 12.7916 12.5661 12.6976V4.8H16V6.29V8H17.71H22.29H24V6.29V1.71V0H22.29H17.71ZM4 15.29C5.26473 15.29 6.29 14.2647 6.29 13C6.29 11.7353 5.26473 10.71 4 10.71C2.73527 10.71 1.71 11.7353 1.71 13C1.71 14.2647 2.73527 15.29 4 15.29ZM20 22.29C21.2647 22.29 22.29 21.2647 22.29 20C22.29 18.7353 21.2647 17.71 20 17.71C18.7353 17.71 17.71 18.7353 17.71 20C17.71 21.2647 18.7353 22.29 20 22.29Z" fill="#424750"/>
</g>
</svg>
