<svg width="14" height="14" viewBox="0 0 14 14" fill="none" xmlns="http://www.w3.org/2000/svg">
<g id="Bug Antivirus Debugging">
<g id="bug-antivirus-debugging--code-bug-security-programming-secure-computer-antivirus-block-protection-malware-debugging">
<path id="Vector" d="M4 9.99905L5.11429 8.88477" stroke="#D70000" stroke-linecap="round" stroke-linejoin="round"/>
<path id="Vector_2" d="M4.85603 7H3.57031" stroke="#D70000" stroke-linecap="round" stroke-linejoin="round"/>
<path id="Vector_3" d="M9.99905 4L8.88477 5.11429" stroke="#D70000" stroke-linecap="round" stroke-linejoin="round"/>
<path id="Vector_4" d="M9.14258 7H10.4283" stroke="#D70000" stroke-linecap="round" stroke-linejoin="round"/>
<path id="Vector_5" d="M6.57031 6.57031H9.14174" stroke="#D70000" stroke-linecap="round" stroke-linejoin="round"/>
<path id="Ellipse 977" d="M1.42773 6.99916C1.42773 8.4768 2.01472 9.89391 3.05957 10.9388C4.10441 11.9836 5.52153 12.5706 6.99916 12.5706C8.4768 12.5706 9.89391 11.9836 10.9388 10.9388C11.9836 9.89391 12.5706 8.4768 12.5706 6.99916C12.5706 5.52153 11.9836 4.10441 10.9388 3.05957C9.89391 2.01472 8.4768 1.42773 6.99916 1.42773C5.52153 1.42773 4.10441 2.01472 3.05957 3.05957C2.01472 4.10441 1.42773 5.52153 1.42773 6.99916Z" stroke="#D70000" stroke-linecap="round" stroke-linejoin="round"/>
<path id="Vector_6" d="M10.9394 10.9394L3.06055 3.06055" stroke="#D70000" stroke-linecap="round" stroke-linejoin="round"/>
<path id="Vector_7" d="M5.11719 5.11678C5.34489 4.69827 5.70558 4.36758 6.14224 4.17698C6.57891 3.98638 7.06664 3.94675 7.52834 4.06434C7.99005 4.18193 8.3994 4.45004 8.6917 4.82629C8.98399 5.20254 9.14256 5.66547 9.14233 6.14192V7.85621C9.1425 8.21433 9.05291 8.56678 8.88176 8.88135" stroke="#D70000" stroke-linecap="round" stroke-linejoin="round"/>
<path id="Vector_8" d="M4.85547 7V7.85714C4.85547 8.1877 4.93194 8.51378 5.07891 8.80988C5.22588 9.10597 5.43936 9.36404 5.70265 9.56392C5.96594 9.76379 6.2719 9.90004 6.5966 9.96201C6.9213 10.024 7.25593 10.01 7.57433 9.92114" stroke="#D70000" stroke-linecap="round" stroke-linejoin="round"/>
</g>
</g>
</svg>
