<svg width="14" height="12" viewBox="0 0 14 12" fill="none" xmlns="http://www.w3.org/2000/svg">
<g id="Bug">
<g id="bug--code-bug-security-programming-secure-computer">
<path id="Vector" d="M6.99972 10.7143C8.0227 10.7143 9.00378 10.3079 9.72713 9.58455C10.4505 8.8612 10.8569 7.88012 10.8569 6.85714C10.8569 5.83417 10.4505 4.85309 9.72713 4.12973C9.00378 3.40638 8.0227 3 6.99972 3C5.97674 3 4.99566 3.40638 4.27231 4.12973C3.54895 4.85309 3.14258 5.83417 3.14258 6.85714C3.14258 7.88012 3.54895 8.8612 4.27231 9.58455C4.99566 10.3079 5.97674 10.7143 6.99972 10.7143Z" stroke="#00B607" stroke-linecap="round" stroke-linejoin="round"/>
<path id="Vector_2" d="M3.14202 6.85742H1.42773" stroke="#00B607" stroke-linecap="round" stroke-linejoin="round"/>
<path id="Vector_3" d="M1.42773 9.8567C1.85543 9.85794 2.27834 9.76666 2.66745 9.58912C3.05655 9.41158 3.40266 9.15198 3.68202 8.82812" stroke="#00B607" stroke-linecap="round" stroke-linejoin="round"/>
<path id="Vector_4" d="M3.68202 4.88601C3.40266 4.56215 3.05655 4.30255 2.66745 4.12501C2.27834 3.94747 1.85543 3.85619 1.42773 3.85743" stroke="#00B607" stroke-linecap="round" stroke-linejoin="round"/>
<path id="Vector_5" d="M10.8555 6.85742H12.5698" stroke="#00B607" stroke-linecap="round" stroke-linejoin="round"/>
<path id="Vector_6" d="M12.5707 9.8567C12.143 9.85794 11.7201 9.76666 11.331 9.58912C10.9419 9.41158 10.5958 9.15198 10.3164 8.82812" stroke="#00B607" stroke-linecap="round" stroke-linejoin="round"/>
<path id="Vector_7" d="M10.3164 4.88601C10.5958 4.56215 10.9419 4.30255 11.331 4.12501C11.7201 3.94747 12.143 3.85619 12.5707 3.85743" stroke="#00B607" stroke-linecap="round" stroke-linejoin="round"/>
<path id="Vector_8" d="M8.0625 3.14516C8.39047 2.95781 8.6631 2.68711 8.85276 2.36047C9.04242 2.03383 9.14238 1.66287 9.1425 1.28516" stroke="#00B607" stroke-linecap="round" stroke-linejoin="round"/>
<path id="Vector_9" d="M4.85547 1.28516C4.85559 1.66287 4.95555 2.03383 5.14521 2.36047C5.33487 2.68711 5.6075 2.95781 5.93547 3.14516" stroke="#00B607" stroke-linecap="round" stroke-linejoin="round"/>
<path id="Vector_10" d="M3.23633 6H10.762" stroke="#00B607" stroke-linecap="round" stroke-linejoin="round"/>
</g>
</g>
</svg>
