<svg width="16" height="16" viewBox="0 0 16 16" fill="none" xmlns="http://www.w3.org/2000/svg">
<g id="Business Contract Give" clip-path="url(#clip0_915_126388)">
<path id="Vector" d="M0.5 1.47656L1.5 2.7379V5.7159C1.47333 6.84123 2.778 7.84923 3.99933 8.8839" stroke="#424750" stroke-width="1.2" stroke-linecap="round" stroke-linejoin="round"/>
<path id="Vector_2" d="M3.48708 4.90533L4.66642 6.11333C4.74083 6.18972 4.82956 6.2507 4.92755 6.29279C5.02553 6.33489 5.13084 6.35727 5.23748 6.35866C5.34411 6.36005 5.44997 6.34043 5.54902 6.30091C5.64807 6.26139 5.73836 6.20275 5.81475 6.12833C5.89114 6.05392 5.95212 5.96519 5.99421 5.8672C6.0363 5.76922 6.05868 5.66391 6.06008 5.55727C6.06147 5.45064 6.04185 5.34478 6.00233 5.24573C5.96281 5.14668 5.90417 5.05639 5.82975 4.98L3.99575 3.10867V2.13333C3.89639 1.5489 3.67416 0.992199 3.34375 0.5" stroke="#424750" stroke-width="1.2" stroke-linecap="round" stroke-linejoin="round"/>
<path id="Vector_3" d="M4 5.42188V13.4965C4 13.7618 4.10536 14.0161 4.29289 14.2036C4.48043 14.3912 4.73478 14.4965 5 14.4965H9.5" stroke="#424750" stroke-width="1.2" stroke-linecap="round" stroke-linejoin="round"/>
<path id="Vector_4" d="M15.5 14.5244L14.5 13.2631V10.2857C14.5233 9.31306 13.5527 8.4284 12.5 7.53906" stroke="#424750" stroke-width="1.2" stroke-linecap="round" stroke-linejoin="round"/>
<path id="Vector_5" d="M6.5 2.5H11.5C11.7652 2.5 12.0196 2.60536 12.2071 2.79289C12.3946 2.98043 12.5 3.23478 12.5 3.5V11.08L11.3333 9.88667C11.183 9.7324 10.9776 9.64415 10.7623 9.64134C10.5469 9.63853 10.3393 9.72138 10.185 9.87167C10.0307 10.022 9.94249 10.2274 9.93967 10.4427C9.93686 10.6581 10.0197 10.8657 10.17 11.02L12.0067 12.892V13.8667C12.1065 14.4501 12.3287 15.0059 12.6587 15.4973" stroke="#424750" stroke-width="1.2" stroke-linecap="round" stroke-linejoin="round"/>
</g>
<defs>
<clipPath id="clip0_915_126388">
<rect width="16" height="16" fill="white"/>
</clipPath>
</defs>
</svg>
