<svg width="24" height="24" viewBox="0 0 24 24" fill="none" xmlns="http://www.w3.org/2000/svg">
<path d="M11.9947 0C5.36996 0 0 5.36996 0 11.9947C0 18.6194 5.36996 23.9894 11.9947 23.9894C18.6194 23.9894 23.9894 18.6194 23.9894 11.9947C23.9894 5.36996 18.63 0 11.9947 0ZM12.0266 18.226C8.6132 18.226 5.83784 15.4506 5.83784 12.0372C5.83784 8.62384 8.6132 5.84847 12.0266 5.84847C15.44 5.84847 18.2153 8.62384 18.2153 12.0372C18.2153 15.4506 15.44 18.226 12.0266 18.226Z" fill="#0066B4"/>
<path d="M22.5309 12.6953C22.2757 13.546 18.2243 20.6492 5.95312 20.6386C7.70767 22.2017 10.0152 23.1588 12.5566 23.1588C18.0541 23.1588 22.5202 18.6927 22.5202 13.1951C22.5202 13.0462 22.5415 12.8442 22.5309 12.6953Z" fill="#0281D7"/>
<path d="M7.35742 2.30686C8.21874 2.10482 17.8528 1.5306 22.5315 12.6959C22.9994 10.3884 22.6804 7.92139 21.4044 5.72024C18.6609 0.956391 12.5572 -0.68118 7.80403 2.06228C7.67643 2.13672 7.48502 2.22179 7.36806 2.29622L7.35742 2.30686Z" fill="#0281D7"/>
<path d="M5.95405 20.6389C5.34793 19.9903 4.88006 13.8972 7.35768 2.30664C5.12463 3.05099 3.14678 4.57159 1.88138 6.77275C-0.862081 11.5366 0.764858 17.6296 5.5287 20.3837C5.65631 20.4582 5.82644 20.5751 5.95405 20.6496V20.6389Z" fill="#0281D7"/>
<path d="M7.38958 2.3078C-0.18153 9.81512 5.95405 20.6401 5.95405 20.6401C19.8521 22.9263 22.5318 12.6968 22.5318 12.6968C18.289 0.648964 7.38958 2.3078 7.38958 2.3078ZM12.0046 18.2582C8.58054 18.2582 5.80518 15.4828 5.80518 12.0588C5.80518 8.63479 8.58054 5.85942 12.0046 5.85942C15.4286 5.85942 18.2039 8.63479 18.2039 12.0588C18.2039 15.4828 15.4286 18.2582 12.0046 18.2582Z" fill="#04CFEC"/>
<path d="M17.0986 4.92357C6.3906 1.01041 3.61523 11.3782 3.61523 11.3782C5.84829 22.3839 15.9502 19.8212 15.9502 19.8212C23.9998 11.9949 17.0986 4.92357 17.0986 4.92357ZM12.037 18.2262C8.62365 18.2262 5.84829 15.4508 5.84829 12.0374C5.84829 8.62405 8.62365 5.84869 12.037 5.84869C15.4504 5.84869 18.2258 8.62405 18.2258 12.0374C18.2258 15.4508 15.4504 18.2262 12.037 18.2262Z" fill="#A3FF38"/>
</svg>
