<svg width="24" height="24" viewBox="0 0 24 24" fill="none" xmlns="http://www.w3.org/2000/svg">
<path d="M16.2868 2.57031H18.8583C19.3129 2.57031 19.7489 2.75092 20.0704 3.07242C20.3919 3.39391 20.5725 3.82994 20.5725 4.2846V21.4275C20.5725 21.8821 20.3919 22.3181 20.0704 22.6396C19.7489 22.9611 19.3129 23.1417 18.8583 23.1417H5.14397C4.68932 23.1417 4.25328 22.9611 3.93179 22.6396C3.6103 22.3181 3.42969 21.8821 3.42969 21.4275V4.2846C3.42969 3.82994 3.6103 3.39391 3.93179 3.07242C4.25328 2.75092 4.68932 2.57031 5.14397 2.57031H7.7154" stroke="#2F3238" stroke-width="1.71429" stroke-linecap="round" stroke-linejoin="round"/>
<path d="M14.5759 0.859375H9.43304C8.48626 0.859375 7.71875 1.62689 7.71875 2.57366V3.4308C7.71875 4.37758 8.48626 5.14509 9.43304 5.14509H14.5759C15.5227 5.14509 16.2902 4.37758 16.2902 3.4308V2.57366C16.2902 1.62689 15.5227 0.859375 14.5759 0.859375Z" stroke="#2F3238" stroke-width="1.71429" stroke-linecap="round" stroke-linejoin="round"/>
<path d="M7.71875 9.42969H16.2902" stroke="#2F3238" stroke-width="1.71429" stroke-linecap="round" stroke-linejoin="round"/>
<path d="M7.71875 13.7188H16.2902" stroke="#2F3238" stroke-width="1.71429" stroke-linecap="round" stroke-linejoin="round"/>
<path d="M7.71875 18H16.2902" stroke="#2F3238" stroke-width="1.71429" stroke-linecap="round" stroke-linejoin="round"/>
</svg>
