<svg width="24" height="24" viewBox="0 0 24 24" fill="none" xmlns="http://www.w3.org/2000/svg">
<g id="Interface User Collaborate" clip-path="url(#clip0_2471_33287)">
<path id="Vector" d="M4.83722 5.63538C6.15608 5.63538 7.22522 4.56623 7.22522 3.24738C7.22522 1.92852 6.15608 0.859375 4.83722 0.859375C3.51836 0.859375 2.44922 1.92852 2.44922 3.24738C2.44922 4.56623 3.51836 5.63538 4.83722 5.63538Z" stroke="#2F3238" stroke-width="1.6" stroke-linejoin="round"/>
<path id="Vector_2" d="M8.81466 11.9991C8.81466 9.80126 7.03293 8.01953 4.83506 8.01953C2.63719 8.01953 0.855469 9.80126 0.855469 11.9991" stroke="#2F3238" stroke-width="1.6" stroke-linecap="round" stroke-linejoin="round"/>
<path id="Vector_3" d="M19.1653 16.776C20.4842 16.776 21.5533 15.7069 21.5533 14.388C21.5533 13.0691 20.4842 12 19.1653 12C17.8465 12 16.7773 13.0691 16.7773 14.388C16.7773 15.7069 17.8465 16.776 19.1653 16.776Z" stroke="#2F3238" stroke-width="1.6" stroke-linejoin="round"/>
<path id="Vector_4" d="M23.1428 23.1436C23.1428 20.9457 21.3611 19.1641 19.1632 19.1641C16.9653 19.1641 15.1836 20.9457 15.1836 23.1436" stroke="#2F3238" stroke-width="1.6" stroke-linecap="round" stroke-linejoin="round"/>
<path id="Vector_5" d="M19.1652 7.22178V6.42587C19.1652 4.66756 17.7398 3.24219 15.9815 3.24219H13.5938" stroke="#2F3238" stroke-width="1.6" stroke-linecap="round" stroke-linejoin="round"/>
<path id="Vector_6" d="M4.83594 16.7734V17.5693C4.83594 19.3277 6.26131 20.7531 8.01961 20.7531H10.4074" stroke="#2F3238" stroke-width="1.6" stroke-linecap="round" stroke-linejoin="round"/>
</g>
<defs>
<clipPath id="clip0_2471_33287">
<rect width="24" height="24" fill="white"/>
</clipPath>
</defs>
</svg>
