<svg width="16" height="16" viewBox="0 0 16 16" fill="none" xmlns="http://www.w3.org/2000/svg">
<g id="Meeting Point" clip-path="url(#clip0_915_126396)">
<path id="Vector" d="M5.8418 7.9998C5.84233 8.57186 6.06976 9.12034 6.47421 9.52491C6.87865 9.92948 7.42707 10.1571 7.99913 10.1578C8.57099 10.156 9.11893 9.92814 9.52336 9.52383C9.92779 9.11953 10.1559 8.57165 10.1578 7.9998C10.1559 7.42805 9.92788 6.88028 9.5236 6.476C9.11931 6.07171 8.57154 5.84373 7.9998 5.8418C7.42805 5.84373 6.88028 6.07171 6.476 6.476C6.07171 6.88028 5.84373 7.42805 5.8418 7.9998Z" stroke="black" stroke-width="1.14" stroke-linecap="round" stroke-linejoin="round"/>
<path id="Vector_2" d="M2.25586 4.644L4.65053 4.64467V2.25" stroke="black" stroke-width="1.14" stroke-linecap="round" stroke-linejoin="round"/>
<path id="Vector_3" d="M2.25586 11.3561L4.65053 11.3555V13.7501" stroke="black" stroke-width="1.14" stroke-linecap="round" stroke-linejoin="round"/>
<path id="Vector_4" d="M13.7443 4.644L11.3496 4.64467V2.25" stroke="black" stroke-width="1.14" stroke-linecap="round" stroke-linejoin="round"/>
<path id="Vector_5" d="M13.7443 11.3561L11.3496 11.3555V13.7501" stroke="black" stroke-width="1.14" stroke-linecap="round" stroke-linejoin="round"/>
<path id="Vector_6" d="M4.65335 4.64425L0.666016 0.65625" stroke="black" stroke-width="1.14" stroke-linecap="round" stroke-linejoin="round"/>
<path id="Vector_7" d="M4.65335 11.3555L0.666016 15.3435" stroke="black" stroke-width="1.14" stroke-linecap="round" stroke-linejoin="round"/>
<path id="Vector_8" d="M11.3477 4.64425L15.335 0.65625" stroke="black" stroke-width="1.14" stroke-linecap="round" stroke-linejoin="round"/>
<path id="Vector_9" d="M11.3477 11.3555L15.335 15.3435" stroke="black" stroke-width="1.14" stroke-linecap="round" stroke-linejoin="round"/>
</g>
<defs>
<clipPath id="clip0_915_126396">
<rect width="16" height="16" fill="white"/>
</clipPath>
</defs>
</svg>
