<svg width="100" height="100" viewBox="0 0 100 100" fill="none" xmlns="http://www.w3.org/2000/svg">
<g id="Module Four" opacity="0.1">
<path id="Vector" d="M93.7539 31.2461V74.9961L50.0039 93.7461L6.25391 74.9961V31.2461L50.0039 49.9961L93.7539 31.2461Z" stroke="#51AE33" stroke-width="10" stroke-linecap="round" stroke-linejoin="round"/>
<path id="Vector_2" d="M50.002 93.75V50" stroke="#51AE33" stroke-width="10" stroke-linecap="round" stroke-linejoin="round"/>
<path id="Vector_3" d="M31.2539 20.5332L6.25391 31.2457" stroke="#51AE33" stroke-width="10" stroke-linecap="round" stroke-linejoin="round"/>
<path id="Vector_4" d="M68.7578 20.5332L93.7578 31.2457" stroke="#51AE33" stroke-width="10" stroke-linecap="round" stroke-linejoin="round"/>
<path id="Vector_5" d="M50.002 18.7539C60.3573 18.7539 68.752 15.9557 68.752 12.5039C68.752 9.05213 60.3573 6.25391 50.002 6.25391C39.6466 6.25391 31.252 9.05213 31.252 12.5039C31.252 15.9557 39.6466 18.7539 50.002 18.7539Z" stroke="#51AE33" stroke-width="10" stroke-linecap="round" stroke-linejoin="round"/>
<path id="Vector_6" d="M31.252 12.5V25C31.252 28.45 39.6478 31.25 50.002 31.25C60.3561 31.25 68.752 28.45 68.752 25V12.5" stroke="#51AE33" stroke-width="10" stroke-linecap="round" stroke-linejoin="round"/>
</g>
</svg>
