<svg width="40" height="40" viewBox="0 0 40 40" fill="none" xmlns="http://www.w3.org/2000/svg">
<path d="M32 18C32 22.9706 28.4224 27 23 27C17.5776 27 14 22.9706 14 18C14 13.0294 17.5776 9 23 9C28.4224 9 32 13.0294 32 18Z" fill="#3981D3" fill-opacity="0.5"/>
<path d="M31.6 18C31.6 22.7631 28.1883 26.6 23 26.6C17.8117 26.6 14.4 22.7631 14.4 18C14.4 13.2369 17.8117 9.4 23 9.4C28.1883 9.4 31.6 13.2369 31.6 18Z" stroke="black" stroke-width="0.8"/>
<path d="M19 20.5C19 23.5376 16.8137 26 13.5 26C10.1863 26 8 23.5376 8 20.5C8 17.4624 10.1863 15 13.5 15C16.8137 15 19 17.4624 19 20.5Z" fill="#D11E15" fill-opacity="0.5"/>
<path d="M18.6 20.5C18.6 23.3301 16.5796 25.6 13.5 25.6C10.4204 25.6 8.4 23.3301 8.4 20.5C8.4 17.6699 10.4204 15.4 13.5 15.4C16.5796 15.4 18.6 17.6699 18.6 20.5Z" stroke="black" stroke-width="0.8"/>
<path d="M26.7589 28.6349L26.76 28.6352L30.6753 29.3921C31.4438 29.5407 31.9464 28.611 31.4011 28.0494L29.5024 26.0936L24.9743 21.4292C24.4739 20.9137 23.6003 21.268 23.6003 21.9864V29.4036V30.6299C23.6003 31.4297 24.6443 31.7345 25.0746 31.0603L26.5662 28.7234C26.6124 28.651 26.6909 28.6216 26.7589 28.6349Z" fill="white" stroke="black" stroke-width="0.8" stroke-linejoin="round"/>
<path d="M9 21L22 21" stroke="black" stroke-linecap="round" stroke-dasharray="2 2"/>
</svg>
