<svg width="24" height="24" viewBox="0 0 24 24" fill="none" xmlns="http://www.w3.org/2000/svg">
<g clip-path="url(#clip0_2471_58812)">
<path d="M22.9881 6.16427C22.955 5.98461 22.8844 5.81393 22.781 5.66332C22.6776 5.5127 22.5438 5.3855 22.3881 5.28998L18.9595 8.71855C18.7996 8.88446 18.6079 9.01643 18.3957 9.10656C18.1836 9.1967 17.9556 9.24316 17.7252 9.24316C17.4948 9.24316 17.2667 9.1967 17.0546 9.10656C16.8426 9.01643 16.6508 8.88446 16.4909 8.71855L15.1881 7.55284C14.874 7.23239 14.698 6.80155 14.698 6.35284C14.698 5.90412 14.874 5.47329 15.1881 5.15284L18.6167 1.72427C18.5419 1.54861 18.4295 1.39154 18.2872 1.26416C18.1451 1.13678 17.9766 1.0422 17.7938 0.987121C16.5975 0.748561 15.3583 0.850678 14.2172 1.28185C13.0761 1.71301 12.079 2.45591 11.3394 3.42595C10.5999 4.396 10.1475 5.5542 10.0338 6.76874C9.92739 7.90644 10.1222 9.05073 10.5967 10.0872L1.39664 19.2873C0.717489 19.9665 0.728752 21.071 1.42161 21.7361L2.38294 22.6591C3.05348 23.3028 4.11488 23.2948 4.77572 22.6411L14.0814 13.4362C15.0879 13.8519 16.1843 14.01 17.2706 13.8935C18.472 13.7647 19.614 13.3053 20.5698 12.5662C21.5255 11.8272 22.2575 10.8376 22.6845 9.70733C23.1114 8.57712 23.2164 7.35064 22.9881 6.16427Z" stroke="#2F3238" stroke-width="1.6" stroke-linecap="round" stroke-linejoin="round"/>
</g>
<defs>
<clipPath id="clip0_2471_58812">
<rect width="24" height="24" fill="white"/>
</clipPath>
</defs>
</svg>
