<svg width="25" height="25" viewBox="0 0 25 25" fill="none" xmlns="http://www.w3.org/2000/svg">
<path d="M16 5.28516H19.0003L13.8574 24.1423H1.85742L3.5 16.999" stroke="#2F3238" stroke-width="1.6" stroke-linecap="round" stroke-linejoin="round"/>
<path d="M24.1429 24.1423L19 5.28516" stroke="#2F3238" stroke-width="1.6" stroke-linecap="round" stroke-linejoin="round"/>
<path d="M15.2637 19H22.738" stroke="#2F3238" stroke-width="1.6" stroke-linecap="round" stroke-linejoin="round"/>
<path d="M1.7794 3.85012L6.2579 1.20432C6.48473 1.07034 6.7402 1 7 1C7.2598 1 7.51527 1.07034 7.7421 1.20432L12.2206 3.85012C12.457 3.98993 12.6538 4.19391 12.7908 4.44104C12.9278 4.68816 13 4.96947 13 5.25596V10.744C13 11.0305 12.9278 11.3118 12.7908 11.559C12.6538 11.8061 12.457 12.0101 12.2206 12.1499L7.7421 14.7957C7.51527 14.9297 7.2598 15 7 15C6.7402 15 6.48473 14.9297 6.2579 14.7957L1.7794 12.1499C1.54302 12.0101 1.34617 11.8061 1.20917 11.559C1.07216 11.3118 0.999958 11.0305 1 10.744V5.25596C0.999958 4.96947 1.07216 4.68816 1.20917 4.44104C1.34617 4.19391 1.54302 3.98993 1.7794 3.85012Z" stroke="#2F3238" stroke-width="1.6" stroke-linecap="round" stroke-linejoin="round"/>
<path d="M4 8C4 8.79565 4.31607 9.55871 4.87868 10.1213C5.44129 10.6839 6.20435 11 7 11C7.79565 11 8.55871 10.6839 9.12132 10.1213C9.68393 9.55871 10 8.79565 10 8C10 7.20435 9.68393 6.44129 9.12132 5.87868C8.55871 5.31607 7.79565 5 7 5C6.20435 5 5.44129 5.31607 4.87868 5.87868C4.31607 6.44129 4 7.20435 4 8Z" stroke="#2F3238" stroke-width="1.6" stroke-linecap="round" stroke-linejoin="round"/>
</svg>
