<svg width="25" height="25" viewBox="0 0 25 25" fill="none" xmlns="http://www.w3.org/2000/svg">
<path d="M12.3077 3L3 3C1.89543 3 1 3.89543 1 5V22C1 23.1046 1.89543 24 3 24H20C21.1046 24 22 23.1046 22 22V12.6923" stroke="#2F3238" stroke-width="1.6" stroke-linecap="round"/>
<path d="M11.1327 7.12534L15.3808 5.57901L16.9261 1.33195C16.9616 1.23466 17.0261 1.15062 17.1109 1.09123C17.1957 1.03185 17.2967 1 17.4003 1C17.5038 1 17.6049 1.03185 17.6897 1.09123C17.7745 1.15062 17.839 1.23466 17.8744 1.33195L19.4208 5.58003L23.6688 7.12534C23.7661 7.16077 23.8502 7.22527 23.9095 7.31009C23.9689 7.39491 24.0008 7.49595 24.0008 7.59949C24.0008 7.70303 23.9689 7.80407 23.9095 7.88889C23.8502 7.97371 23.7661 8.03822 23.6688 8.07364L19.4197 9.61997L17.8744 13.8681C17.839 13.9653 17.7745 14.0494 17.6897 14.1088C17.6049 14.1681 17.5038 14.2 17.4003 14.2C17.2967 14.2 17.1957 14.1681 17.1109 14.1088C17.0261 14.0494 16.9616 13.9653 16.9261 13.8681L15.3798 9.61895L11.1327 8.07364C11.0354 8.03822 10.9514 7.97371 10.892 7.88889C10.8326 7.80407 10.8008 7.70303 10.8008 7.59949C10.8008 7.49595 10.8326 7.39491 10.892 7.31009C10.9514 7.22527 11.0354 7.16077 11.1327 7.12534Z" stroke="#2F3238" stroke-width="1.6" stroke-linecap="round" stroke-linejoin="round"/>
</svg>
