<svg width="19" height="18" viewBox="0 0 19 18" fill="none" xmlns="http://www.w3.org/2000/svg">
<g id="Star 1">
<path d="M9.02447 1.46352C9.17415 1.00287 9.82585 1.00287 9.97553 1.46353L11.5206 6.21885C11.5876 6.42486 11.7795 6.56434 11.9962 6.56434H16.9962C17.4806 6.56434 17.6819 7.18415 17.2901 7.46885L13.245 10.4078C13.0697 10.5351 12.9964 10.7608 13.0633 10.9668L14.6084 15.7221C14.7581 16.1828 14.2309 16.5659 13.839 16.2812L9.79389 13.3422C9.61865 13.2149 9.38135 13.2149 9.20611 13.3422L5.16099 16.2812C4.76913 16.5659 4.24189 16.1828 4.39157 15.7221L5.93667 10.9668C6.0036 10.7608 5.93027 10.5351 5.75503 10.4078L1.70991 7.46885C1.31805 7.18415 1.51944 6.56434 2.0038 6.56434H7.00385C7.22046 6.56434 7.41244 6.42486 7.47937 6.21885L9.02447 1.46352Z" fill="#FFD600"/>
<path d="M9.97553 1.46353L10.4511 1.30902C10.1517 0.38771 8.8483 0.387701 8.54894 1.30902L9.02447 1.46352L8.54894 1.30902L7.00385 6.06434H2.0038C1.03509 6.06434 0.632301 7.30395 1.41602 7.87335L5.46114 10.8123L3.91604 15.5676C3.61669 16.4889 4.67116 17.2551 5.45488 16.6857L9.5 13.7467L13.5451 16.6857C14.3288 17.2551 15.3833 16.4889 15.084 15.5676L13.5389 10.8123L17.584 7.87336C18.3677 7.30396 17.9649 6.06434 16.9962 6.06434L11.9962 6.06434L10.4511 1.30902L9.97553 1.46353Z" stroke="white" stroke-opacity="0.7"/>
</g>
</svg>
