<svg width="16" height="16" viewBox="0 0 16 16" fill="none" xmlns="http://www.w3.org/2000/svg">
<g id="Version" clip-path="url(#clip0_915_126380)">
<path id="Vector" d="M13.9993 0.666016H7.99935C7.64573 0.666016 7.30659 0.806491 7.05654 1.05654C6.80649 1.30659 6.66602 1.64573 6.66602 1.99935V13.9993C6.66602 14.353 6.80649 14.6921 7.05654 14.9422C7.30659 15.1922 7.64573 15.3327 7.99935 15.3327H13.9993C14.353 15.3327 14.6921 15.1922 14.9422 14.9422C15.1922 14.6921 15.3327 14.353 15.3327 13.9993V1.99935C15.3327 1.64573 15.1922 1.30659 14.9422 1.05654C14.6921 0.806491 14.353 0.666016 13.9993 0.666016Z" stroke="#424750" stroke-linecap="round" stroke-linejoin="round"/>
<path id="Vector_2" d="M4.99935 1.66602C4.64573 1.66602 4.30659 1.80649 4.05654 2.05654C3.80649 2.30659 3.66602 2.64573 3.66602 2.99935V12.9993C3.66602 13.353 3.80649 13.6921 4.05654 13.9422C4.30659 14.1922 4.64573 14.3327 4.99935 14.3327" stroke="#424750" stroke-linecap="round" stroke-linejoin="round"/>
<path id="Vector_3" d="M1.99935 2.66602C1.64573 2.66602 1.30659 2.80649 1.05654 3.05654C0.806491 3.30659 0.666016 3.64573 0.666016 3.99935V11.9993C0.666016 12.353 0.806491 12.6921 1.05654 12.9422C1.30659 13.1922 1.64573 13.3327 1.99935 13.3327" stroke="#424750" stroke-linecap="round" stroke-linejoin="round"/>
<path id="Vector_4" d="M11 10.5C11.663 10.5 12.2989 10.2366 12.7678 9.76777C13.2366 9.29893 13.5 8.66304 13.5 8C13.5 7.33696 13.2366 6.70107 12.7678 6.23223C12.2989 5.76339 11.663 5.5 11 5.5C10.337 5.5 9.70107 5.76339 9.23223 6.23223C8.76339 6.70107 8.5 7.33696 8.5 8C8.5 8.66304 8.76339 9.29893 9.23223 9.76777C9.70107 10.2366 10.337 10.5 11 10.5Z" stroke="#424750" stroke-linecap="round" stroke-linejoin="round"/>
<path id="Vector_5" d="M11.8777 8.29174H10.791V7.20508" stroke="#424750" stroke-linecap="round" stroke-linejoin="round"/>
</g>
<defs>
<clipPath id="clip0_915_126380">
<rect width="16" height="16" fill="white"/>
</clipPath>
</defs>
</svg>
