<svg width="24" height="24" viewBox="0 0 24 24" fill="none" xmlns="http://www.w3.org/2000/svg">
<path d="M10.8662 4.42008L4.3312 0.498047L3.63477 1.66052L6.67971 4.42008H10.8662Z" fill="#8500C3"/>
<path d="M14.8906 7.83857L15.0687 9.61108L19.5876 11.237L20.2867 10.0745L16.1474 7.58984L14.8906 7.83857Z" fill="#CCC400"/>
<path d="M17.2412 4.42008L20.2861 1.66052L19.5871 0.498047L13.0547 4.42008H17.2412Z" fill="#FF3636"/>
<path d="M9.10938 7.83928L7.79244 7.58008L3.63477 10.0752L4.3312 11.2377L8.93658 9.58299L9.10938 7.83928Z" fill="#0024A4"/>
<path d="M8.54482 13.5176L3.45508 19.8483L5.1569 20.9584L8.08926 18.0758L8.54482 13.5176Z" fill="#00B493"/>
<path d="M18.6877 20.9566L20.3922 19.8465L15.4805 13.7383L15.9308 18.2442L18.6877 20.9566Z" fill="#19AF00"/>
<path d="M11.9484 4.11553C13.0719 4.11553 13.9827 3.20473 13.9827 2.0812C13.9827 0.957674 13.0719 0.046875 11.9484 0.046875C10.8249 0.046875 9.91406 0.957674 9.91406 2.0812C9.91406 3.20473 10.8249 4.11553 11.9484 4.11553Z" fill="#CD00A0"/>
<path d="M1 6.17067L9.53639 7.52689L7.93406 23.5763H9.96577L12.0001 14.3027L14.0344 23.5763H16.0661L14.4638 7.52689L23 6.17067V4.81445H1V6.17067Z" fill="#497CFF"/>
</svg>
