<svg width="16" height="16" viewBox="0 0 16 16" fill="none" xmlns="http://www.w3.org/2000/svg">
<g id="Workflow Teamwork Handshake" clip-path="url(#clip0_2582_190037)">
<path id="Vector" d="M6.77879 7.36826L9.79546 5.90159C10.058 5.7729 10.361 5.75377 10.6376 5.84842C10.9143 5.94306 11.1421 6.14371 11.2708 6.40626L12.8895 9.70493C13.0181 9.9675 13.0373 10.2704 12.9426 10.5471C12.848 10.8238 12.6473 11.0515 12.3848 11.1803L8.26079 13.1923L6.57812 15.3376" stroke="#2C2C2C" stroke-linecap="round" stroke-linejoin="round"/>
<path id="Vector_2" d="M2.48662 10.1142C2.42186 10.2442 2.38346 10.3858 2.37362 10.5307C2.36379 10.6757 2.38271 10.8212 2.4293 10.9588C2.47589 11.0964 2.54924 11.2234 2.64512 11.3326C2.74099 11.4418 2.85751 11.5309 2.98796 11.5948L3.80929 12.0008C4.03042 12.1099 4.27124 12.1733 4.51739 12.1872C4.76355 12.2012 5.00999 12.1655 5.24204 12.0822C5.47409 11.9989 5.687 11.8697 5.86806 11.7024C6.04913 11.535 6.19465 11.3329 6.29596 11.1082L7.08662 9.35617C7.28281 8.92166 7.30244 8.42791 7.14134 7.97921C6.98025 7.53051 6.65105 7.16199 6.22329 6.9515L5.46995 6.58083C5.20886 6.45312 4.90789 6.43373 4.63257 6.52687C4.35725 6.62002 4.12987 6.81817 3.99996 7.07817L2.48662 10.1142Z" stroke="#2C2C2C" stroke-linecap="round" stroke-linejoin="round"/>
<path id="Vector_3" d="M3.65351 11.9219L0.964844 15.3405" stroke="#2C2C2C" stroke-linecap="round" stroke-linejoin="round"/>
<path id="Vector_4" d="M7.99805 13.5273L9.41738 15.34" stroke="#2C2C2C" stroke-linecap="round" stroke-linejoin="round"/>
<path id="Vector_5" d="M11.9453 11.3945L15.0353 15.3405" stroke="#2C2C2C" stroke-linecap="round" stroke-linejoin="round"/>
<path id="Vector_6" d="M9.32713 6.09773L6.16446 4.5204C5.98049 4.43014 5.7682 4.41665 5.57429 4.48292C5.38037 4.54918 5.22073 4.68976 5.13046 4.87373L5.00513 5.13173C4.94133 5.26601 4.90535 5.41181 4.89934 5.56036C4.89333 5.70891 4.91742 5.85714 4.97017 5.99613C5.02292 6.13513 5.10323 6.26203 5.20627 6.36919C5.30932 6.47636 5.43297 6.56158 5.56979 6.61973L5.96979 6.8244" stroke="#2C2C2C" stroke-linecap="round" stroke-linejoin="round"/>
<path id="Vector_7" d="M6.83984 4.85955L8.51051 4.05555C8.69448 3.96529 8.90678 3.95181 9.10069 4.01807C9.2946 4.08434 9.45425 4.22491 9.54451 4.40888L9.66718 4.66755C9.73421 4.80417 9.77367 4.95265 9.78331 5.10452C9.79295 5.25639 9.77259 5.40867 9.72337 5.55266C9.67415 5.69666 9.59705 5.82955 9.49647 5.94375C9.39589 6.05794 9.2738 6.15121 9.13718 6.21822L8.41118 6.57422" stroke="#2C2C2C" stroke-linecap="round" stroke-linejoin="round"/>
<path id="Vector_8" d="M7.99805 0.660156V1.99349" stroke="#2C2C2C" stroke-linecap="round" stroke-linejoin="round"/>
<path id="Vector_9" d="M14.3613 3.29688L13.418 4.23954" stroke="#2C2C2C" stroke-linecap="round" stroke-linejoin="round"/>
<path id="Vector_10" d="M1.63281 3.29688L2.57548 4.23954" stroke="#2C2C2C" stroke-linecap="round" stroke-linejoin="round"/>
</g>
<defs>
<clipPath id="clip0_2582_190037">
<rect width="16" height="16" fill="white"/>
</clipPath>
</defs>
</svg>
